<svg viewBox="0 0 70 70" fill="none" xmlns="http://www.w3.org/2000/svg">
  <circle cx="35" cy="35" r="35" fill="#20B0E3"/>
  <path d="M23.3301 35.461C23.3301 33.83 24.6837 32.5078 26.3535 32.5078C28.0233 32.5078 29.377 33.83 29.377 35.461V38.5781C29.377 40.2091 28.0233 41.5313 26.3535 41.5313C24.6837 41.5313 23.3301 40.2091 23.3301 38.5781V35.461Z" fill="white"/>
  <path d="M39.3711 35.543C39.3711 33.912 40.7247 32.5899 42.3945 32.5899C44.0643 32.5899 45.418 33.912 45.418 35.543V38.6602C45.418 40.2911 44.0643 41.6133 42.3945 41.6133C40.7247 41.6133 39.3711 40.2911 39.3711 38.6602V35.543Z" fill="white"/>
  <path d="M21.1218 16.9993C22.2214 15.7786 24.1259 15.6598 25.3756 16.7338L32.2761 22.6641H23.1507L21.3937 21.1541C20.144 20.0801 20.0222 18.2199 21.1218 16.9993Z" fill="white"/>
  <path fill-rule="evenodd" clip-rule="evenodd" d="M45.7503 22.6641L47.5073 21.1541C48.757 20.0801 48.8787 18.22 47.7792 16.9993C46.6796 15.7787 44.7751 15.6598 43.5254 16.7338L36.6248 22.6641L19.8027 22.6641C16.0457 22.6641 13 25.639 13 29.3086V47.3555C13 51.0251 16.0457 54 19.8027 54H49.1973C52.9543 54 56 51.0251 56 47.3555V29.3086C56 25.639 52.9543 22.6641 49.1973 22.6641L45.7503 22.6641ZM21.8184 27.8321C20.1022 27.8321 18.7109 29.191 18.7109 30.8672V45.4688C18.7109 47.145 20.1022 48.5039 21.8184 48.5039H47.3496C49.0658 48.5039 50.457 47.145 50.457 45.4688V30.8672C50.457 29.191 49.0658 27.8321 47.3496 27.8321H21.8184Z" fill="white"/>
</svg>
