<svg viewBox="0 0 70 70" fill="none" xmlns="http://www.w3.org/2000/svg">
  <circle cx="35" cy="35" r="35" fill="#7289DA"/>
  <path d="M50.9775 23.0017C50.9775 23.0017 46.3988 19.4125 40.9813 19L40.5 19.9764C45.395 21.1728 47.6362 22.8917 49.9875 24.9957C45.945 22.933 41.9438 20.994 34.9863 20.994C28.0288 20.994 24.0275 22.933 19.985 24.9957C22.3363 22.8917 25.0038 20.9802 29.4725 19.9764L28.9913 19C23.3125 19.5363 18.995 23.0017 18.995 23.0017C18.995 23.0017 13.88 30.4276 13 45.0043C18.1562 50.9587 25.9938 51 25.9938 51L27.63 48.8135C24.8525 47.8509 21.7038 46.1182 18.995 42.9966C22.2263 45.4444 27.1213 48.0021 35 48.0021C42.8788 48.0021 47.76 45.4581 51.005 42.9966C48.2963 46.1182 45.1475 47.8509 42.37 48.8135L44.0063 51C44.0063 51 51.8438 50.9587 57 45.0043C56.0925 30.4276 50.9775 23.0017 50.9775 23.0017ZM28.4688 41.0026C26.53 41.0026 24.9625 39.2149 24.9625 37.0009C24.9625 34.7868 26.53 32.9991 28.4688 32.9991C30.4075 32.9991 31.975 34.7868 31.975 37.0009C31.975 39.2149 30.4075 41.0026 28.4688 41.0026ZM41.4762 41.0026C39.5375 41.0026 37.97 39.2149 37.97 37.0009C37.97 34.7868 39.5375 32.9991 41.4762 32.9991C43.415 32.9991 44.9825 34.7868 44.9825 37.0009C44.9825 39.2149 43.4012 41.0026 41.4762 41.0026Z" fill="white"/>
</svg>
