<svg viewBox="0 0 70 70" fill="none" xmlns="http://www.w3.org/2000/svg">
  <circle cx="35" cy="35" r="35" fill="#1877F2"/>
  <path d="M70 35C70 15.668 54.332 0 35 0C15.668 0 0 15.668 0 35C0 52.4727 12.7969 66.9512 29.5312 69.5762V45.1172H20.6445V35H29.5312V27.2891C29.5312 18.5186 34.7539 13.6719 42.752 13.6719C46.5801 13.6719 50.5859 14.3555 50.5859 14.3555V22.9688H46.1699C41.8223 22.9688 40.4688 25.6689 40.4688 28.4375V35H50.1758L48.624 45.1172H40.4688V69.5762C57.2031 66.9512 70 52.4727 70 35Z" fill="#1877F2"/>
  <path d="M48.624 45.1172L50.1758 35H40.4688V28.4375C40.4688 25.6689 41.8223 22.9688 46.1699 22.9688H50.5859V14.3555C50.5859 14.3555 46.5801 13.6719 42.752 13.6719C34.7539 13.6719 29.5312 18.5186 29.5312 27.2891V35H20.6445V45.1172H29.5312V69.5762C33.1552 70.1413 36.8448 70.1413 40.4688 69.5762V45.1172H48.624Z" fill="white"/>
</svg>
