<svg viewBox="0 0 70 70" fill="none" xmlns="http://www.w3.org/2000/svg">
  <circle cx="35" cy="35" r="35" fill="#F7661C"/>
  <path d="M8.2545 36.2919L8.34743 40.9561C8.35983 41.314 8.30406 41.5422 8.18015 41.641C8.06862 41.7397 7.89514 41.789 7.6597 41.789H5.93106C5.64606 41.789 5.45398 41.7335 5.35485 41.6224C5.25572 41.5114 5.19996 41.277 5.18756 40.9191L5.00169 29.1475C4.9893 28.7897 5.04506 28.5429 5.16898 28.4072C5.30529 28.2591 5.53453 28.1851 5.85671 28.1851H12.827C13.0872 28.1851 13.2793 28.2344 13.4032 28.3332C13.5271 28.4319 13.5891 28.6108 13.5891 28.8699V30.3136C13.5891 30.5604 13.5271 30.7393 13.4032 30.8503C13.2793 30.9491 13.0872 30.9984 12.827 30.9984H8.18015L8.21732 33.4786H12.1765C12.4367 33.4786 12.6287 33.528 12.7527 33.6267C12.8766 33.7254 12.9385 33.9043 12.9385 34.1634V35.6071C12.9385 35.8662 12.8766 36.0451 12.7527 36.1439C12.6287 36.2426 12.4367 36.2919 12.1765 36.2919H8.2545Z" fill="white"/>
  <path d="M22.7626 34.9963C22.7626 34.33 22.6882 33.7439 22.5395 33.238C22.3908 32.7321 22.1926 32.3064 21.9447 31.9609C21.6845 31.6277 21.3809 31.3809 21.034 31.2205C20.687 31.0478 20.3152 30.9614 19.9187 30.9614C19.5222 30.9614 19.1504 31.0478 18.8035 31.2205C18.4565 31.3809 18.1591 31.6277 17.9113 31.9609C17.651 32.3064 17.4466 32.7321 17.2979 33.238C17.1492 33.7439 17.0748 34.33 17.0748 34.9963C17.0748 35.6626 17.1492 36.2487 17.2979 36.7546C17.4466 37.2606 17.651 37.6801 17.9113 38.0132C18.1591 38.3464 18.4565 38.5994 18.8035 38.7721C19.1504 38.9325 19.5222 39.0127 19.9187 39.0127C20.3152 39.0127 20.687 38.9325 21.034 38.7721C21.3809 38.5994 21.6845 38.3464 21.9447 38.0132C22.1926 37.6801 22.3908 37.2606 22.5395 36.7546C22.6882 36.2487 22.7626 35.6626 22.7626 34.9963ZM26.0154 34.9963C26.0154 36.0698 25.8481 37.0384 25.5135 37.9022C25.1914 38.7659 24.7514 39.5001 24.1938 40.1047C23.6362 40.7094 22.9856 41.1721 22.2421 41.4929C21.511 41.8137 20.7366 41.9741 19.9187 41.9741C19.1009 41.9741 18.3202 41.8137 17.5767 41.4929C16.8456 41.1721 16.2012 40.7094 15.6436 40.1047C15.086 39.5001 14.6399 38.7659 14.3053 37.9022C13.9831 37.0384 13.822 36.0637 13.822 34.9778C13.822 33.9043 13.9831 32.9357 14.3053 32.0719C14.6399 31.2082 15.086 30.474 15.6436 29.8694C16.2012 29.2648 16.8456 28.802 17.5767 28.4812C18.3202 28.1604 19.1009 28 19.9187 28C20.7366 28 21.511 28.1666 22.2421 28.4997C22.9856 28.8206 23.6362 29.2833 24.1938 29.8879C24.7514 30.4925 25.1914 31.2267 25.5135 32.0904C25.8481 32.9542 26.0154 33.9228 26.0154 34.9963Z" fill="white"/>
  <path d="M30.4293 34.9963C31.0985 34.9716 31.6437 34.8976 32.065 34.7742C32.4864 34.6508 32.8209 34.4904 33.0688 34.293C33.3042 34.0956 33.4653 33.8734 33.552 33.6267C33.6388 33.3799 33.6821 33.1146 33.6821 32.8308C33.6821 32.5223 33.6264 32.2385 33.5149 31.9794C33.4033 31.7203 33.2237 31.4982 32.9758 31.3131C32.7156 31.1403 32.3748 31.0231 31.9535 30.9614C31.5322 30.8874 31.0055 30.875 30.3736 30.9244L30.4293 34.9963ZM27.1208 29.7583C27.1084 29.5115 27.1022 29.3141 27.1022 29.1661C27.1146 29.0056 27.1517 28.8761 27.2137 28.7774C27.2633 28.691 27.3562 28.6231 27.4925 28.5738C27.6412 28.5121 27.8457 28.4442 28.1059 28.3702C28.6387 28.2221 29.2273 28.1172 29.8717 28.0555C30.5161 27.9938 31.1666 27.9877 31.8234 28.037C32.4678 28.0864 33.0935 28.2036 33.7007 28.3887C34.3203 28.5738 34.8717 28.8452 35.355 29.2031C35.8259 29.5609 36.2038 30.0113 36.4889 30.5542C36.7739 31.0971 36.9164 31.7511 36.9164 32.5161C36.9164 32.948 36.8544 33.3799 36.7305 33.8118C36.619 34.2313 36.4331 34.6261 36.1729 34.9963C35.9126 35.3788 35.5719 35.7367 35.1506 36.0698C34.7292 36.403 34.215 36.693 33.6078 36.9397L35.448 40.0122C35.6338 40.3207 35.6834 40.5613 35.5967 40.734C35.5099 40.9068 35.355 41.0425 35.132 41.1412L33.9238 41.678C33.5892 41.826 33.3352 41.8507 33.1617 41.752C32.9882 41.6533 32.8395 41.4991 32.7156 41.2893L30.5223 37.6246V40.9561C30.5223 41.277 30.4727 41.4929 30.3736 41.6039C30.2744 41.7273 30.0886 41.789 29.816 41.789H28.2174C27.9572 41.789 27.7775 41.7273 27.6784 41.6039C27.5793 41.4929 27.5235 41.277 27.5111 40.9561L27.1208 29.7583Z" fill="white"/>
  <path d="M48.3771 36.1253C48.4143 36.9891 48.3523 37.7788 48.1913 38.4945C48.0426 39.2101 47.7699 39.8271 47.3734 40.3453C46.9769 40.8636 46.4502 41.2646 45.7935 41.5484C45.1367 41.8322 44.3251 41.9741 43.3585 41.9741C42.4539 41.9741 41.6733 41.8569 41.0165 41.6224C40.3597 41.4003 39.8207 41.0672 39.3994 40.623C38.9657 40.1911 38.6435 39.6605 38.4328 39.0312C38.2222 38.3896 38.1107 37.6554 38.0983 36.8287L37.9867 29.018C37.9867 28.6972 38.0363 28.4812 38.1354 28.3702C38.247 28.2468 38.4328 28.1851 38.6931 28.1851H40.4403C40.7129 28.1851 40.8988 28.2468 40.9979 28.3702C41.097 28.4812 41.1466 28.6972 41.1466 29.018L41.2395 36.9768C41.2395 37.4333 41.3077 37.8096 41.444 38.1058C41.5803 38.3896 41.7538 38.6117 41.9645 38.7721C42.1751 38.9325 42.4044 39.0436 42.6522 39.1053C42.9 39.1546 43.1417 39.1731 43.3771 39.1608C43.6249 39.1484 43.8604 39.0991 44.0834 39.0127C44.3065 38.914 44.5047 38.7659 44.6782 38.5685C44.8393 38.3711 44.9632 38.112 45.05 37.7911C45.1367 37.4703 45.1739 37.0693 45.1615 36.5881L44.8641 29.018C44.8517 28.6972 44.9013 28.4812 45.0128 28.3702C45.1243 28.2468 45.3102 28.1851 45.5704 28.1851H47.3176C47.5903 28.1851 47.7699 28.2468 47.8567 28.3702C47.9434 28.4812 47.9992 28.6972 48.024 29.018L48.3771 36.1253Z" fill="white"/>
  <path d="M59.5424 28.8699C59.6291 28.5738 59.7283 28.3887 59.8398 28.3146C59.9513 28.2283 60.1434 28.1851 60.416 28.1851H62.126C62.411 28.1851 62.6279 28.2406 62.7766 28.3517C62.9377 28.4627 63.0368 28.7033 63.074 29.0735L64.3751 41.0302C64.3999 41.2399 64.3937 41.3942 64.3565 41.4929C64.3194 41.5916 64.2078 41.6533 64.022 41.678L62.1446 41.9001C61.934 41.9248 61.7915 41.9124 61.7171 41.8631C61.6428 41.8137 61.5932 41.7088 61.5684 41.5484L60.7134 34.1079L58.5201 41.1967C58.4581 41.4065 58.3714 41.5546 58.2598 41.641C58.1607 41.7397 58.0058 41.789 57.7952 41.789H56.8658C56.6551 41.789 56.494 41.7397 56.3825 41.641C56.2834 41.5546 56.2028 41.4065 56.1409 41.1967L53.929 34.1079L53.0925 41.5484C53.0678 41.7088 53.0182 41.8137 52.9438 41.8631C52.8695 41.9124 52.727 41.9248 52.5163 41.9001L50.639 41.678C50.4531 41.6533 50.3416 41.5916 50.3044 41.4929C50.2672 41.3942 50.261 41.2399 50.2858 41.0302L51.587 29.0735C51.6241 28.7033 51.7171 28.4627 51.8658 28.3517C52.0269 28.2406 52.2499 28.1851 52.5349 28.1851H54.245C54.5176 28.1851 54.7096 28.2283 54.8212 28.3146C54.9327 28.3887 55.0318 28.5738 55.1186 28.8699L57.3305 36.5881L59.5424 28.8699Z" fill="white"/>
</svg>
