<svg viewBox="0 0 70 70" fill="none" xmlns="http://www.w3.org/2000/svg">
  <circle cx="35" cy="35" r="35" fill="#FEE100"/>
  <path d="M28.4445 33.5821H31.0363L29.7404 29.8578L28.4445 33.5821Z" fill="#2D2926"/>
  <path d="M34.5 14C22.0731 14 12 22.0328 12 31.9431C12 38.3501 16.2123 43.9781 22.5469 47.1466C22.2029 48.3479 20.3315 54.8797 20.2579 55.3939C20.2579 55.3939 20.2125 55.779 20.4591 55.9256C20.5417 55.9677 20.6318 55.9923 20.7241 55.998C20.8163 56.0036 20.9087 55.9902 20.9957 55.9584C21.7053 55.8578 29.2168 50.5295 30.5149 49.6127C31.8353 49.7981 33.1669 49.8895 34.5 49.8862C46.9269 49.8862 57 41.8534 57 31.9431C57 22.0328 46.9269 14 34.5 14ZM23.3647 29.1575C23.3365 31.6958 23.3863 34.3654 23.3452 36.8643C23.3322 37.663 22.8779 37.9015 22.2635 38.1291C22.194 38.1539 22.1193 38.1592 22.0471 38.1444C21.344 38.0044 20.7837 37.7505 20.7663 36.8665C20.7166 34.3698 20.7815 31.6958 20.7469 29.1575C20.1519 29.1335 19.3038 29.1816 18.7522 29.1575C17.9863 29.1072 17.4541 28.6149 17.4865 27.8818C17.519 27.1488 17.9063 26.6214 18.7651 26.6083C20.7945 26.5777 23.3084 26.5777 25.3377 26.6083C26.2031 26.6214 26.5882 27.151 26.6142 27.8818C26.6401 28.6127 26.1166 29.1072 25.3529 29.1575C24.8077 29.1816 23.9618 29.1335 23.3647 29.1575ZM34.2685 38.0088C34.009 38.1282 33.7272 38.1901 33.4421 38.1904C32.9012 38.1904 32.488 37.9716 32.3603 37.6105L31.7113 35.9081H27.7608L27.1118 37.6105C26.9863 37.9672 26.5731 38.1904 26.03 38.1904C25.7456 38.1904 25.4645 38.1284 25.2058 38.0088C24.8466 37.8425 24.5026 37.3829 24.8964 36.1444L28.0096 27.8775C28.1402 27.5133 28.374 27.1962 28.6819 26.9658C28.9897 26.7354 29.3579 26.6019 29.7404 26.5821C30.1226 26.604 30.4901 26.7386 30.7976 26.9691C31.1051 27.1997 31.3392 27.5162 31.4712 27.8797L34.5736 36.1422C34.9695 37.3829 34.6255 37.8512 34.2685 38.0088ZM40.8281 38.0088H36.6635C36.3409 38.0152 36.029 37.8922 35.7959 37.6667C35.5627 37.4412 35.4274 37.1314 35.4195 36.8053V27.895C35.4333 27.5489 35.579 27.2216 35.826 26.9817C36.073 26.7418 36.4021 26.6078 36.7446 26.6078C37.0871 26.6078 37.4162 26.7418 37.6632 26.9817C37.9102 27.2216 38.0559 27.5489 38.0697 27.895V35.6083H40.8281C40.9904 35.5984 41.153 35.6222 41.3059 35.6782C41.4587 35.7342 41.5987 35.8212 41.7171 35.934C41.8354 36.0467 41.9298 36.1827 41.9942 36.3337C42.0587 36.4847 42.092 36.6474 42.092 36.8118C42.092 36.9763 42.0587 37.139 41.9942 37.2899C41.9298 37.4409 41.8354 37.5769 41.7171 37.6897C41.5987 37.8024 41.4587 37.8894 41.3059 37.9454C41.153 38.0014 40.9904 38.0252 40.8281 38.0153V38.0088ZM50.9964 37.0197C50.9626 37.2787 50.8532 37.5216 50.6822 37.7174C50.5112 37.9131 50.2863 38.0528 50.0364 38.1186C49.7864 38.1844 49.5227 38.1733 49.2791 38.0867C49.0354 38 48.8228 37.8419 48.6685 37.6324L45.6245 33.5558L45.1745 34.0109V36.8753C45.1745 37.2235 45.0378 37.5574 44.7943 37.8036C44.5509 38.0499 44.2207 38.1882 43.8764 38.1882C43.5322 38.1882 43.202 38.0499 42.9586 37.8036C42.7151 37.5574 42.5784 37.2235 42.5784 36.8753V27.9037C42.5784 27.5555 42.7151 27.2216 42.9586 26.9754C43.202 26.7291 43.5322 26.5908 43.8764 26.5908C44.2207 26.5908 44.5509 26.7291 44.7943 26.9754C45.0378 27.2216 45.1745 27.5555 45.1745 27.9037V30.7177L48.7962 27.0547C48.891 26.9599 49.0035 26.8851 49.1272 26.8348C49.2509 26.7844 49.3833 26.7595 49.5166 26.7615C49.8407 26.7701 50.1503 26.8995 50.3859 27.1249C50.6215 27.3502 50.7665 27.6556 50.793 27.9825C50.8047 28.1284 50.7854 28.275 50.7366 28.4128C50.6877 28.5505 50.6103 28.6761 50.5096 28.7812L47.5457 31.7724L50.7411 36.0547C50.948 36.3325 51.0375 36.6819 50.9899 37.0263L50.9964 37.0197Z" fill="#2D2926"/>
</svg>
