<svg viewBox="0 0 70 70" fill="none" xmlns="http://www.w3.org/2000/svg">
  <circle cx="35" cy="35" r="35" fill="#3AAE38"/>
  <g clip-path="url(#clip0)">
    <path d="M45.9004 17C45.9004 22.1906 41.6899 26.4011 36.5015 26.4011H25.889C25.889 21.2083 30.0974 17 35.2879 17H45.9004Z" fill="white"/>
    <path fill-rule="evenodd" clip-rule="evenodd" d="M49.4605 30.7666C53.0729 30.7666 56 33.6936 55.9978 37.3061C55.9978 40.9163 53.0708 43.8434 49.4605 43.8434H47.3411C45.3635 49.2369 40.1817 53.0851 34.1005 53.0851C26.3125 53.0851 20 46.7726 20 38.9846V30.7666H49.4605ZM48.0723 40.877H49.4605C51.4337 40.877 53.0336 39.2771 53.0315 37.3039C53.0315 35.3307 51.4315 33.7307 49.4583 33.7307H48.1989V38.9846C48.1989 39.6263 48.1552 40.2571 48.0723 40.877Z" fill="white"/>
  </g>
  <defs>
    <clipPath id="clip0">
      <rect width="36" height="36.0851" fill="white" transform="translate(20 17)"/>
    </clipPath>
  </defs>
</svg>
