<svg viewBox="0 0 70 70" fill="none" xmlns="http://www.w3.org/2000/svg">
  <circle cx="35" cy="35" r="35" fill="#FA481E"/>
  <path fill-rule="evenodd" clip-rule="evenodd" d="M50.3092 25.2487C48.0288 25.2487 46.1759 23.4061 46.1698 21.1354L38.9695 19.4197L36.0856 27.5794C40.9179 27.7615 45.2923 29.1101 48.5875 31.2097C49.5139 30.399 50.6866 29.9526 51.9309 29.9526C54.7244 29.9526 57 32.2199 57 35.0033C56.9959 36.7554 56.0871 38.3765 54.6055 39.2967C54.6869 39.7829 54.7287 40.2769 54.7287 40.7774C54.7287 48.0658 45.8599 53.9964 34.9618 53.9964C24.0594 53.9964 15.1949 48.0658 15.1949 40.7774C15.1949 40.2619 15.2393 39.7533 15.3255 39.2531C13.8843 38.3259 13 36.7281 13 35.0033C13 32.2199 15.2756 29.9526 18.0691 29.9526C19.2991 29.9526 20.4626 30.3853 21.3814 31.1809C24.7996 29.0165 29.3693 27.6575 34.4029 27.5635L37.9421 17.5457L46.4706 19.5752C47.0853 18.0658 48.5748 17 50.3092 17C52.5932 17 54.4485 18.8486 54.4485 21.1243C54.4442 23.4001 52.589 25.2487 50.3092 25.2487ZM50.3092 18.5863C48.9039 18.5863 47.7619 19.7242 47.7619 21.1243C47.7619 22.5245 48.9039 23.6624 50.3092 23.6624C51.7144 23.6624 52.8564 22.5245 52.8564 21.1243C52.8564 19.7242 51.7102 18.5863 50.3092 18.5863ZM40.9187 35.9982C39.216 35.9982 37.8404 37.3997 37.8404 39.1303C37.8404 40.8652 39.2202 42.2668 40.9187 42.2668C42.6172 42.2668 43.9928 40.861 43.9928 39.1303C43.9928 37.404 42.6172 35.9982 40.9187 35.9982ZM28.0771 35.9982C26.3744 35.9982 24.9988 37.404 24.9988 39.1304C24.9988 40.8652 26.3744 42.2668 28.0771 42.2668C29.7756 42.2668 31.1512 40.861 31.1512 39.1304C31.1512 37.404 29.7756 35.9982 28.0771 35.9982ZM34.2421 49.9968C29.2262 49.9968 27.2216 47.6765 27.1377 47.5782C26.8567 47.2407 26.8945 46.7364 27.2216 46.4501C27.5487 46.1638 28.0436 46.2023 28.3246 46.5313C28.3707 46.5826 30.0441 48.3944 34.2379 48.3944C38.5031 48.3944 40.3735 46.5185 40.3945 46.4971C40.6964 46.1852 41.1955 46.1767 41.5059 46.4843C41.8162 46.792 41.8246 47.2919 41.5268 47.6081C41.4388 47.7064 39.2328 49.9968 34.2421 49.9968Z" fill="white"/>
</svg>
