<svg xmlns="http://www.w3.org/2000/svg" viewBox="0 0 70 70" fill="none">
  <circle cx="35" cy="35" r="35" fill="#37AEE1"/>
  <path d="M29.6928 49.2128C42.5241 49.2128 49.5402 38.3595 49.5402 28.9486C49.5402 28.6399 49.5343 28.3329 49.5199 28.0277C50.8818 27.022 52.0658 25.7681 53 24.3396C51.7499 24.9069 50.4049 25.2882 48.9939 25.4612C50.4337 24.5791 51.5399 23.1843 52.0607 21.5214C50.7124 22.3369 49.2201 22.9309 47.6312 23.25C46.3599 21.8656 44.5466 21 42.541 21C38.6882 21 35.5638 24.19 35.5638 28.1219C35.5638 28.6806 35.6248 29.2245 35.7451 29.7459C29.9477 29.4484 24.8067 26.6138 21.3664 22.304C20.7667 23.3564 20.4212 24.5791 20.4212 25.884C20.4212 28.3554 21.6527 30.5363 23.5253 31.8126C22.381 31.7772 21.3062 31.4555 20.3661 30.9219C20.3644 30.9513 20.3644 30.9816 20.3644 31.0127C20.3644 34.4622 22.7689 37.3417 25.9611 37.9955C25.375 38.158 24.7584 38.2462 24.1224 38.2462C23.6726 38.2462 23.2356 38.2004 22.8113 38.1174C23.6989 40.9468 26.2745 43.0066 29.3286 43.0645C26.9402 44.9747 23.9326 46.1136 20.6643 46.1136C20.101 46.1136 19.5463 46.0807 19 46.015C22.0871 48.0341 25.7527 49.2128 29.6928 49.2128Z" fill="white"/>
</svg>
