<svg viewBox="0 0 70 70" fill="none" xmlns="http://www.w3.org/2000/svg">
  <circle cx="35" cy="35" r="35" fill="#FE596C"/>
  <path d="M30.6968 52.1175C22.552 52.9152 15.5204 49.2752 14.991 43.9995C14.4615 38.7171 20.638 33.7967 28.776 32.999C36.9208 32.2013 43.9525 35.8413 44.4751 41.117C45.0113 46.3994 38.8348 51.3265 30.6968 52.1175ZM46.9796 34.5877C46.2873 34.3799 45.8122 34.2458 46.1719 33.3476C46.9593 31.3968 47.0407 29.7143 46.1855 28.5076C44.5905 26.2552 40.2194 26.3759 35.2104 28.4473C35.2104 28.4473 33.6357 29.1243 34.043 27.8976C34.8099 25.4508 34.6946 23.4062 33.5 22.2197C30.7851 19.5316 23.5566 22.3203 17.3597 28.4406C12.724 33.0191 10.0294 37.8792 10.0294 42.0823C10.0294 50.1131 20.4615 55 30.6629 55C44.0407 55 52.9389 47.3244 52.9389 41.2309C52.9457 37.544 49.8032 35.4525 46.9796 34.5877Z" fill="white"/>
  <path d="M55.8642 19.8869C52.6335 16.3474 47.8688 15 43.4706 15.9251C42.4525 16.1396 41.8077 17.1317 42.0249 18.1306C42.2421 19.1361 43.2399 19.7729 44.258 19.5584C47.3869 18.9015 50.7738 19.8601 53.0679 22.3739C55.362 24.8877 55.9864 28.3132 55.0023 31.3164C54.6833 32.2951 55.2262 33.3409 56.2172 33.6559C57.2081 33.971 58.267 33.4347 58.586 32.4627V32.456C59.9706 28.2395 59.095 23.4196 55.8642 19.8869Z" fill="white"/>
  <path d="M50.9027 24.3112C49.328 22.5884 47.0068 21.9314 44.8688 22.3873C43.9932 22.5683 43.4367 23.4263 43.6199 24.2911C43.81 25.1558 44.6719 25.7055 45.5407 25.5178C46.586 25.2966 47.7262 25.6184 48.4932 26.4563C49.2602 27.301 49.4706 28.4473 49.138 29.4528C48.8665 30.2907 49.328 31.1957 50.1832 31.4706C51.0384 31.7387 51.9479 31.2829 52.2262 30.4382C52.8982 28.3802 52.4774 26.034 50.9027 24.3112Z" fill="white"/>
  <path d="M31.1448 42.5582C30.8597 43.0408 30.2285 43.2688 29.7398 43.0677C29.2511 42.8733 29.1018 42.3303 29.3801 41.861C29.6651 41.3918 30.2692 41.1639 30.7511 41.3516C31.2398 41.5258 31.4163 42.0688 31.1448 42.5582ZM28.5452 45.8429C27.7579 47.0831 26.0679 47.6261 24.7986 47.0563C23.5498 46.4932 23.1764 45.0519 23.9638 43.8386C24.7443 42.6319 26.3733 42.0956 27.6357 42.6185C28.9117 43.1615 29.319 44.5894 28.5452 45.8429ZM31.5045 37.0613C27.6289 36.0625 23.2511 37.973 21.5678 41.3448C19.8507 44.7838 21.5135 48.6048 25.4231 49.8516C29.4819 51.1454 34.2602 49.1612 35.9231 45.4541C37.5656 41.8208 35.5158 38.0869 31.5045 37.0613Z" fill="white"/>
</svg>
