<svg viewBox="0 0 70 70" fill="none" xmlns="http://www.w3.org/2000/svg">
  <circle cx="35" cy="35" r="35" fill="#C7252D"/>
  <path fill-rule="evenodd" clip-rule="evenodd" d="M50.5191 21.8535C52.2888 22.3305 53.6758 23.7206 54.1465 25.4809C55 28.6753 55 35.3497 55 35.3497C55 35.3497 55 42.0209 54.1465 45.2184C53.6695 46.9882 52.2794 48.3752 50.5191 48.8459C47.3215 49.6994 34.5 49.6994 34.5 49.6994C34.5 49.6994 21.6848 49.6994 18.4809 48.8459C16.7112 48.3689 15.3242 46.9788 14.8535 45.2184C14 42.0209 14 35.3497 14 35.3497C14 35.3497 14 28.6753 14.8535 25.4809C15.3305 23.7143 16.7206 22.3242 18.4809 21.8535C21.6848 21 34.5 21 34.5 21C34.5 21 47.3215 21 50.5191 21.8535ZM40.9254 35.3089L30.2753 41.4592V29.1586L40.9254 35.3089Z" fill="white"/>
</svg>
