<?xml version="1.0" standalone="yes"?>
<svg width="512" height="512">
<path style="fill:#47704c; stroke:none;" d="M0 0L0 229L1 229C1.05181 210.224 7.10622 190.664 13 173C35.2804 106.223 87.0188 50.5377 151 21.6944C174.588 11.061 202.821 1.07211 229 1L208 0L161 0L0 0z"/>
<path style="fill:#663299; stroke:none;" d="M17 354C24.2047 362.005 27.9868 375.515 33.4275 385C43.7754 403.04 56.5694 419.805 70.8449 434.91C83.395 448.19 98.4217 461.067 114 470.681C124.826 477.361 139.688 482.591 149 491C158.281 491.545 169.065 498.05 178 500.999C195.623 506.816 215.374 511.529 234 511.985C262.843 512.692 290.822 512.013 319 505.346C333.122 502.004 348.855 491.887 363 491C368.931 485.644 378.018 482.578 385 478.573C398.07 471.075 410.531 462.343 422 452.573C470.07 411.621 501.526 354.472 510.572 292C515.01 261.352 513.417 227.038 506.13 197C497.796 162.649 483.357 130.38 462.105 102C372.859 -17.1781 196.234 -34.0781 85 63.8449C59.9768 85.8737 38.4649 113.765 24.1698 144C2.7314 189.343 -5.06485 241.247 1.28549 291C3.00235 304.451 6.00253 318.055 10.0255 331C12.2439 338.139 17.0108 346.523 17 354z"/>
<path style="fill:#47704c; stroke:none;" d="M283 0L283 1C301.816 1.05182 321.303 7.09537 339 13C405.794 35.2862 461.459 87.0114 490.306 151C500.924 174.554 510.928 202.861 511 229L512 229L512 0L283 0z"/>
<path style="fill:#8156ab; stroke:none;" d="M243 54L243 55L261 55L243 54z"/>
<path style="fill:#d3c3e1; stroke:none;" d="M236 55L236 56L247 56L236 55z"/>
<path style="fill:#ffffff; stroke:none;" d="M456 257L330 257L330 292L416 292C412.79 331.298 378.134 371.721 347 392.485C339.033 397.798 330.545 402.049 322 406.338C318.963 407.862 314.522 410.55 311 409.494C306.349 408.099 302.315 402.315 299 399L273 373L179 279L122 222C116.827 216.827 103.179 207.497 102.133 200C101.257 193.723 108.409 183.349 111.309 178C123.105 156.241 140.619 136.105 161 122.025C236.198 70.0751 335.518 87.5023 390 161C397.549 157.635 403.718 150.874 410 145.59C412.264 143.685 416.634 141.128 417.083 137.91C417.74 133.2 409.821 126.145 406.911 123C395.378 110.532 383.129 99.1934 369 89.6697C322.842 58.5564 267.243 49.2299 213 59.4599C156.762 70.066 108.131 108.957 80.1505 158C73.4054 169.822 68.9317 182.145 64.6667 195C63.0358 199.915 59.7449 206.78 61.6073 212C63.4284 217.105 69.2735 221.273 73 225L101 253L200 352L272 424C279.008 431.008 291.218 448.956 301 451.188C305.448 452.202 312.707 448.573 317 447.28C332.678 442.558 348.16 435.711 362 426.947C420.978 389.596 456 326.571 456 257z"/>
<path style="fill:#cdbddf; stroke:none;" d="M265 55L265 56L270 56L265 55z"/>
<path style="fill:#9f7cbf; stroke:none;" d="M270 55L270 56L275 56L270 55z"/>
<path style="fill:#d1c1e1; stroke:none;" d="M229 56L229 57L234 57L229 56z"/>
<path style="fill:#8d66b3; stroke:none;" d="M280 56L280 57L285 57L280 56z"/>
<path style="fill:#ad91c9; stroke:none;" d="M222 57L222 58L225 58L222 57M287 57L287 58L290 58L287 57z"/>
<path style="fill:#d5c7e3; stroke:none;" d="M216 58L216 59L220 59L216 58z"/>
<path style="fill:#9f7cbf; stroke:none;" d="M211.667 59.3333L212.333 59.6667L211.667 59.3333z"/>
<path style="fill:#ab8dc7; stroke:none;" d="M207.667 60.3333L208.333 60.6667L207.667 60.3333z"/>
<path style="fill:#a789c5; stroke:none;" d="M302.667 60.3333L303.333 60.6667L302.667 60.3333M203.667 61.3333L204.333 61.6667L203.667 61.3333z"/>
<path style="fill:#a587c3; stroke:none;" d="M306.667 61.3333L307.333 61.6667L306.667 61.3333z"/>
<path style="fill:#bfa9d5; stroke:none;" d="M200.667 62.3333L201.333 62.6667L200.667 62.3333z"/>
<path style="fill:#bba5d3; stroke:none;" d="M309.667 62.3333L310.333 62.6667L309.667 62.3333z"/>
<path style="fill:#a587c3; stroke:none;" d="M313.667 63.3333L314.333 63.6667L313.667 63.3333z"/>
<path style="fill:#ad91c9; stroke:none;" d="M316.667 64.3333L317.333 64.6667L316.667 64.3333z"/>
<path style="fill:#a789c5; stroke:none;" d="M322.667 66.3333L323.333 66.6667L322.667 66.3333z"/>
<path style="fill:#9b78bd; stroke:none;" d="M325.667 67.3333L326.333 67.6667L325.667 67.3333z"/>
<path style="fill:#a789c5; stroke:none;" d="M241 91L241 92L264 92L241 91z"/>
<path style="fill:#d5c7e3; stroke:none;" d="M264 91L264 92L271 92L264 91z"/>
<path style="fill:#a789c5; stroke:none;" d="M234 92L234 93L239 93L234 92z"/>
<path style="fill:#8b62b1; stroke:none;" d="M269 92L269 93L276 93L269 92z"/>
<path style="fill:#9f7cbf; stroke:none;" d="M280 93L280 94L283 94L280 93z"/>
<path style="fill:#8f68b5; stroke:none;" d="M222 94L222 95L226 95L222 94z"/>
<path style="fill:#c9b7db; stroke:none;" d="M217 95L217 96L220 96L217 95z"/>
<path style="fill:#a789c5; stroke:none;" d="M214.667 96.3333L215.333 96.6667L214.667 96.3333M295.667 96.3333L296.333 96.6667L295.667 96.3333z"/>
<path style="fill:#b197cb; stroke:none;" d="M210.667 97.3333L211.333 97.6667L210.667 97.3333M299.667 97.3333L300.333 97.6667L299.667 97.3333z"/>
<path style="fill:#a183c1; stroke:none;" d="M207.667 98.3333L208.333 98.6667L207.667 98.3333z"/>
<path style="fill:#c7b5db; stroke:none;" d="M303.667 98.3333L304.333 98.6667L303.667 98.3333z"/>
<path style="fill:#9b78bd; stroke:none;" d="M204.667 99.3333L205.333 99.6667L204.667 99.3333z"/>
<path style="fill:#c5b1d9; stroke:none;" d="M306.667 99.3333L307.333 99.6667L306.667 99.3333z"/>
<path style="fill:#9b78bd; stroke:none;" d="M201.667 100.333L202.333 100.667L201.667 100.333z"/>
<path style="fill:#c7b5db; stroke:none;" d="M309.667 100.333L310.333 100.667L309.667 100.333z"/>
<path style="fill:#cdbddf; stroke:none;" d="M317.667 103.333L318.333 103.667L317.667 103.333z"/>
<path style="fill:#c5b1d9; stroke:none;" d="M66.3333 188.667L66.6667 189.333L66.3333 188.667M65.3333 191.667L65.6667 192.333L65.3333 191.667M64.3333 194.667L64.6667 195.333L64.3333 194.667z"/>
<path style="fill:#9b78bd; stroke:none;" d="M102.333 196.667L102.667 197.333L102.333 196.667z"/>
<path style="fill:#bba5d3; stroke:none;" d="M63.3333 197.667L63.6667 198.333L63.3333 197.667z"/>
<path style="fill:#ab8dc7; stroke:none;" d="M62.3333 200.667L62.6667 201.333L62.3333 200.667z"/>
<path style="fill:#b59bcd; stroke:none;" d="M61.3333 204.667L61.6667 205.333L61.3333 204.667z"/>
<path style="fill:#cdbddf; stroke:none;" d="M60 208L60 212L61 212L60 208z"/>
<path style="fill:#e3d9eb; stroke:none;" d="M329 256L329 292L330 292L330 257L456 257L456 273L457 273L457 256L329 256z"/>
<path style="fill:#b99fcf; stroke:none;" d="M55 259L55 267L56 267L55 259z"/>
<path style="fill:#ffffff; stroke:none;" d="M56 260C56 366.397 145.848 456 252 456L219 422L155 358L90 293L56 260z"/>
<path style="fill:#b99fcf; stroke:none;" d="M56 273L56 279L57 279L56 273z"/>
<path style="fill:#8f68b5; stroke:none;" d="M455 280L455 284L456 284L455 280z"/>
<path style="fill:#47704c; stroke:none;" d="M0 283L0 512L229 512L229 511C210.553 510.949 191.361 505.121 174 499.333C166.323 496.774 157.033 490.922 149 491C143.791 483.895 129.603 479.699 122 474.95C104.292 463.888 87.0463 450.986 72.5764 435.83C57.6386 420.184 44.1984 402.777 33.4275 384C28.7827 375.903 24.3273 359.39 17 354L9.42438 328L0 283M511 283C510.824 346.843 467.716 412.775 421 452.573C409.531 462.343 397.07 471.075 384 478.573C377.849 482.101 367.165 485.318 363 491C354.967 490.922 345.677 496.774 338 499.333C320.639 505.121 301.447 510.949 283 511L283 512L512 512L512 351L512 304L511 283z"/>
<path style="fill:#936eb7; stroke:none;" d="M57 284L57 288L58 288L57 284z"/>
<path style="fill:#ad91c9; stroke:none;" d="M454 287L454 290L455 290L454 287z"/>
<path style="fill:#af95cb; stroke:none;" d="M329 292L329 293L416 293L389 292L329 292z"/>
<path style="fill:#bfa9d5; stroke:none;" d="M453.333 292.667L453.667 293.333L453.333 292.667z"/>
<path style="fill:#c5b1d9; stroke:none;" d="M59.3333 295.667L59.6667 296.333L59.3333 295.667z"/>
<path style="fill:#b99fcf; stroke:none;" d="M415.333 295.667L415.667 296.333L415.333 295.667z"/>
<path style="fill:#c1abd5; stroke:none;" d="M414.333 299.667L414.667 300.333L414.333 299.667z"/>
<path style="fill:#b99fcf; stroke:none;" d="M60 300L60 303L61 303L60 300z"/>
<path style="fill:#c7b5db; stroke:none;" d="M451 301L451 304L452 304L451 301z"/>
<path style="fill:#b197cb; stroke:none;" d="M413.333 302.667L413.667 303.333L413.333 302.667z"/>
<path style="fill:#c1abd5; stroke:none;" d="M61 304L61 307L62 307L61 304z"/>
<path style="fill:#a789c5; stroke:none;" d="M450.333 306.667L450.667 307.333L450.333 306.667z"/>
<path style="fill:#bba5d3; stroke:none;" d="M62.3333 308.667L62.6667 309.333L62.3333 308.667z"/>
<path style="fill:#ab8dc7; stroke:none;" d="M63.3333 312.667L63.6667 313.333L63.3333 312.667M448.333 313.667L448.667 314.333L448.333 313.667z"/>
<path style="fill:#af95cb; stroke:none;" d="M447.333 316.667L447.667 317.333L447.333 316.667z"/>
<path style="fill:#9f7cbf; stroke:none;" d="M444.333 325.667L444.667 326.333L444.333 325.667z"/>
<path style="fill:#cdbddf; stroke:none;" d="M319.667 407.333L320.333 407.667L319.667 407.333z"/>
<path style="fill:#c9b7db; stroke:none;" d="M314.667 409.333L315.333 409.667L314.667 409.333z"/>
<path style="fill:#b99fcf; stroke:none;" d="M188.667 445.333L189.333 445.667L188.667 445.333z"/>
<path style="fill:#9b78bd; stroke:none;" d="M322.667 445.333L323.333 445.667L322.667 445.333z"/>
<path style="fill:#bba5d3; stroke:none;" d="M191.667 446.333L192.333 446.667L191.667 446.333z"/>
<path style="fill:#9b78bd; stroke:none;" d="M319.667 446.333L320.333 446.667L319.667 446.333z"/>
<path style="fill:#b59bcd; stroke:none;" d="M194.667 447.333L195.333 447.667L194.667 447.333z"/>
<path style="fill:#9b78bd; stroke:none;" d="M316.667 447.333L317.333 447.667L316.667 447.333z"/>
<path style="fill:#bba5d3; stroke:none;" d="M312.667 448.333L313.333 448.667L312.667 448.333M201.667 449.333L202.333 449.667L201.667 449.333z"/>
<path style="fill:#ab8dc7; stroke:none;" d="M309.667 449.333L310.333 449.667L309.667 449.333z"/>
<path style="fill:#b59bcd; stroke:none;" d="M305.667 450.333L306.333 450.667L305.667 450.333z"/>
<path style="fill:#9f7cbf; stroke:none;" d="M208 451L208 452L211 452L208 451z"/>
<path style="fill:#a789c5; stroke:none;" d="M213.667 452.333L214.333 452.667L213.667 452.333z"/>
<path style="fill:#c5b1d9; stroke:none;" d="M232 455L232 456L236 456L232 455z"/>
<path style="fill:#b99fcf; stroke:none;" d="M252 455L244 456L244 457L252 455z"/>
</svg>
